<svg width="452" height="740" viewBox="0 0 452 740" fill="none" xmlns="http://www.w3.org/2000/svg">
<path d="M346.455 702.655C273.527 772.838 158.226 729.449 86.8558 671.242C15.4859 613.036 -7.83578 562.636 3.87978 423.263C15.5953 283.891 52.8759 20.7761 143.09 2.25586C233.305 -16.2644 394.542 188.45 436.91 334.366" stroke="url(#paint0_linear_19_6308)"/>
<path d="M342.44 691.567C271.943 759.41 160.485 717.467 91.4939 661.201C22.5031 604.935 -0.04126 556.215 11.2838 421.488C22.6088 286.762 58.6467 32.417 145.854 14.5141C233.062 -3.38881 388.924 194.501 429.879 335.554" stroke="url(#paint1_linear_19_6308)"/>
<path d="M338.425 680.479C270.359 745.982 162.744 705.486 96.1321 651.16C29.5202 596.834 7.75326 549.793 18.6878 419.713C29.6223 289.632 64.4175 44.058 148.618 26.7724C232.818 9.48678 383.306 200.553 422.849 336.742" stroke="url(#paint2_linear_19_6308)"/>
<path d="M334.41 669.39C268.774 732.554 165.003 693.504 100.77 641.118C36.5374 588.732 15.5478 543.372 26.0918 417.937C36.6358 292.502 70.1883 55.6984 151.381 39.0301C232.575 22.3619 377.688 206.604 415.819 337.929" stroke="url(#paint3_linear_19_6308)"/>
<path d="M330.394 658.301C267.19 719.126 167.262 681.522 105.408 631.077C43.5545 580.631 23.3423 536.951 33.4958 416.162C43.6493 295.372 75.9591 67.3393 154.145 51.2884C232.331 35.2375 372.07 212.656 408.788 339.117" stroke="url(#paint4_linear_19_6308)"/>
<path d="M326.379 647.213C265.606 705.698 169.521 669.541 110.046 621.035C50.5716 572.53 31.1368 530.53 40.8998 414.386C50.6628 298.243 81.7299 78.9802 156.909 63.5466C232.088 48.1131 366.452 218.708 401.758 340.305" stroke="url(#paint5_linear_19_6308)"/>
<path d="M322.364 636.124C264.022 692.27 171.781 657.559 114.685 610.994C57.5887 564.429 38.9313 524.109 48.3038 412.611C57.6762 301.113 87.5007 90.6211 159.672 75.8049C231.844 60.9887 360.834 224.76 394.728 341.493" stroke="url(#paint6_linear_19_6308)"/>
<path d="M318.349 625.036C262.438 678.842 174.04 645.577 119.323 600.952C64.6059 556.327 46.7259 517.687 55.7078 410.835C64.6897 303.983 93.2715 102.262 162.436 88.0627C231.601 73.8638 355.216 230.811 387.697 342.681" stroke="url(#paint7_linear_19_6308)"/>
<path d="M314.334 613.947C260.853 665.414 176.299 633.596 123.961 590.911C71.623 548.226 54.5204 511.266 63.1118 409.06C71.7032 306.854 99.0423 113.902 165.2 100.321C231.357 86.7394 349.598 236.863 380.667 343.868" stroke="url(#paint8_linear_19_6308)"/>
<path d="M310.319 602.859C259.269 651.987 178.558 621.614 128.599 580.87C78.6402 540.125 62.315 504.845 70.5159 407.284C78.7168 309.724 104.813 125.543 167.963 112.579C231.114 99.615 343.98 242.915 373.637 345.056" stroke="url(#paint9_linear_19_6308)"/>
<path d="M306.303 591.77C257.685 638.559 180.817 609.633 133.237 570.828C85.6574 532.024 70.1096 498.424 77.9199 405.509C85.7303 312.594 110.584 137.184 170.727 124.837C230.87 112.491 338.362 248.967 366.607 346.244" stroke="url(#paint10_linear_19_6308)"/>
<path d="M302.288 580.681C256.101 625.13 183.076 597.651 137.875 560.787C92.6744 523.922 77.904 492.002 85.3238 403.733C92.7437 315.464 116.355 148.825 173.491 137.095C230.627 125.366 332.743 255.018 359.576 347.432" stroke="url(#paint11_linear_19_6308)"/>
<path d="M298.273 569.593C254.516 611.703 185.335 585.669 142.514 550.745C99.6916 515.821 85.6986 485.581 92.7279 401.958C99.7573 318.335 122.126 160.466 176.254 149.353C230.383 138.241 327.125 261.07 352.546 348.62" stroke="url(#paint12_linear_19_6308)"/>
<path d="M294.258 558.505C252.932 598.275 187.595 573.688 147.152 540.704C106.709 507.72 93.4931 479.16 100.132 400.183C106.771 321.205 127.896 172.106 179.018 161.612C230.14 151.117 321.507 267.121 345.516 349.807" stroke="url(#paint13_linear_19_6308)"/>
<path d="M290.243 547.416C251.348 584.847 189.854 561.706 151.79 530.663C113.726 499.619 101.288 472.739 107.536 398.407C113.784 324.075 133.667 183.747 181.782 173.87C229.896 163.992 315.889 273.173 338.485 350.995" stroke="url(#paint14_linear_19_6308)"/>
<path d="M286.228 536.327C249.764 571.419 192.113 549.724 156.428 520.621C120.743 491.518 109.082 466.318 114.94 396.631C120.798 326.945 139.438 195.388 184.545 186.128C229.653 176.868 310.271 279.225 331.455 352.183" stroke="url(#paint15_linear_19_6308)"/>
<path d="M282.212 525.239C248.179 557.991 194.372 537.743 161.066 510.58C127.76 483.417 116.877 459.896 122.344 394.856C127.811 329.816 145.209 207.029 187.309 198.386C229.409 189.743 304.653 285.276 324.425 353.371" stroke="url(#paint16_linear_19_6308)"/>
<path d="M278.197 514.151C246.595 544.563 196.631 525.761 165.704 500.538C134.777 475.315 124.671 453.475 129.748 393.081C134.825 332.686 150.98 218.67 190.073 210.644C229.166 202.619 299.035 291.328 317.394 354.559" stroke="url(#paint17_linear_19_6308)"/>
<path d="M274.182 503.062C245.011 531.135 198.89 513.78 170.342 490.497C141.794 467.214 132.466 447.054 137.152 391.305C141.838 335.557 156.75 230.311 192.836 222.902C228.922 215.494 293.417 297.38 310.364 355.747" stroke="url(#paint18_linear_19_6308)"/>
<path d="M270.167 491.974C243.427 517.707 201.149 501.798 174.981 480.456C148.812 459.113 140.26 440.633 144.556 389.53C148.852 338.427 162.521 241.951 195.6 235.161C228.679 228.37 287.799 303.432 303.334 356.934" stroke="url(#paint19_linear_19_6308)"/>
<path d="M266.152 480.885C241.842 504.279 203.409 489.816 179.619 470.414C155.829 451.012 148.055 434.212 151.96 387.754C155.865 341.297 168.292 253.592 198.364 247.418C228.435 241.245 282.181 309.483 296.303 358.122" stroke="url(#paint20_linear_19_6308)"/>
<path d="M262.137 469.797C240.258 490.851 205.668 477.835 184.257 460.373C162.846 442.911 155.849 427.791 159.364 385.979C162.879 344.167 174.063 265.233 201.127 259.677C228.192 254.121 276.563 315.535 289.273 359.31" stroke="url(#paint21_linear_19_6308)"/>
<path d="M258.121 458.708C238.674 477.424 207.927 465.853 188.895 450.331C169.863 434.81 163.644 421.37 166.768 384.204C169.892 347.038 179.834 276.874 203.891 271.935C227.948 266.996 270.945 321.587 282.243 360.498" stroke="url(#paint22_linear_19_6308)"/>
<path d="M254.106 447.62C237.09 463.996 210.186 453.872 193.533 440.29C176.88 426.709 171.438 414.948 174.172 382.428C176.906 349.908 185.604 288.515 206.654 284.193C227.705 279.872 265.327 327.638 275.212 361.686" stroke="url(#paint23_linear_19_6308)"/>
<path d="M250.091 436.531C235.505 450.567 212.445 441.89 198.171 430.248C183.897 418.607 179.233 408.527 181.576 380.652C183.919 352.778 191.375 300.155 209.418 296.451C227.461 292.747 259.708 333.69 268.182 362.873" stroke="url(#paint24_linear_19_6308)"/>
<path d="M246.076 425.442C233.921 437.14 214.704 429.908 202.809 420.207C190.914 410.506 187.027 402.106 188.98 378.877C190.933 355.648 197.146 311.796 212.182 308.709C227.218 305.623 254.09 339.742 261.152 364.061" stroke="url(#paint25_linear_19_6308)"/>
<path d="M242.061 414.354C232.337 423.712 216.963 417.927 207.447 410.166C197.931 402.405 194.822 395.685 196.384 377.102C197.946 358.519 202.917 323.437 214.945 320.967C226.974 318.498 248.472 345.793 254.121 365.249" stroke="url(#paint26_linear_19_6308)"/>
<path d="M238.046 403.266C230.753 410.284 219.223 405.945 212.086 400.124C204.949 394.304 202.616 389.264 203.788 375.327C204.96 361.389 208.688 335.078 217.709 333.226C226.731 331.374 242.854 351.845 247.091 366.437" stroke="url(#paint27_linear_19_6308)"/>
<path d="M234.03 392.177C229.168 396.856 221.482 393.963 216.724 390.083C211.966 386.202 210.411 382.842 211.192 373.551C211.973 364.259 214.458 346.718 220.473 345.483C226.487 344.249 237.236 357.896 240.061 367.624" stroke="url(#paint28_linear_19_6308)"/>
<path d="M230.015 381.088C227.584 383.428 223.741 381.982 221.362 380.041C218.983 378.101 218.205 376.421 218.596 371.775C218.987 367.13 220.229 358.359 223.236 357.742C226.244 357.124 231.618 363.948 233.03 368.812" stroke="url(#paint29_linear_19_6308)"/>
<defs>
<linearGradient id="paint0_linear_19_6308" x1="22501" y1="1.08252" x2="22501" y2="73784.6" gradientUnits="userSpaceOnUse">
<stop offset="0.451923" stop-color="#DDDDDD"/>
<stop offset="1" stop-color="#979797"/>
</linearGradient>
<linearGradient id="paint1_linear_19_6308" x1="21758.5" y1="13.3799" x2="21758.5" y2="71337.4" gradientUnits="userSpaceOnUse">
<stop offset="0.451923" stop-color="#DDDDDD"/>
<stop offset="1" stop-color="#979797"/>
</linearGradient>
<linearGradient id="paint2_linear_19_6308" x1="21016" y1="25.6772" x2="21016" y2="68890.3" gradientUnits="userSpaceOnUse">
<stop offset="0.451923" stop-color="#DDDDDD"/>
<stop offset="1" stop-color="#979797"/>
</linearGradient>
<linearGradient id="paint3_linear_19_6308" x1="20273.5" y1="37.9741" x2="20273.5" y2="66443.1" gradientUnits="userSpaceOnUse">
<stop offset="0.451923" stop-color="#DDDDDD"/>
<stop offset="1" stop-color="#979797"/>
</linearGradient>
<linearGradient id="paint4_linear_19_6308" x1="19531" y1="50.2715" x2="19531" y2="63996" gradientUnits="userSpaceOnUse">
<stop offset="0.451923" stop-color="#DDDDDD"/>
<stop offset="1" stop-color="#979797"/>
</linearGradient>
<linearGradient id="paint5_linear_19_6308" x1="18788.5" y1="62.5688" x2="18788.5" y2="61548.8" gradientUnits="userSpaceOnUse">
<stop offset="0.451923" stop-color="#DDDDDD"/>
<stop offset="1" stop-color="#979797"/>
</linearGradient>
<linearGradient id="paint6_linear_19_6308" x1="18046" y1="74.8662" x2="18046" y2="59101.7" gradientUnits="userSpaceOnUse">
<stop offset="0.451923" stop-color="#DDDDDD"/>
<stop offset="1" stop-color="#979797"/>
</linearGradient>
<linearGradient id="paint7_linear_19_6308" x1="17303.5" y1="87.1631" x2="17303.5" y2="56654.5" gradientUnits="userSpaceOnUse">
<stop offset="0.451923" stop-color="#DDDDDD"/>
<stop offset="1" stop-color="#979797"/>
</linearGradient>
<linearGradient id="paint8_linear_19_6308" x1="16561" y1="99.4604" x2="16561" y2="54207.4" gradientUnits="userSpaceOnUse">
<stop offset="0.451923" stop-color="#DDDDDD"/>
<stop offset="1" stop-color="#979797"/>
</linearGradient>
<linearGradient id="paint9_linear_19_6308" x1="15818.5" y1="111.758" x2="15818.5" y2="51760.2" gradientUnits="userSpaceOnUse">
<stop offset="0.451923" stop-color="#DDDDDD"/>
<stop offset="1" stop-color="#979797"/>
</linearGradient>
<linearGradient id="paint10_linear_19_6308" x1="15076" y1="124.055" x2="15076" y2="49313.1" gradientUnits="userSpaceOnUse">
<stop offset="0.451923" stop-color="#DDDDDD"/>
<stop offset="1" stop-color="#979797"/>
</linearGradient>
<linearGradient id="paint11_linear_19_6308" x1="14333.5" y1="136.352" x2="14333.5" y2="46865.9" gradientUnits="userSpaceOnUse">
<stop offset="0.451923" stop-color="#DDDDDD"/>
<stop offset="1" stop-color="#979797"/>
</linearGradient>
<linearGradient id="paint12_linear_19_6308" x1="13591" y1="148.649" x2="13591" y2="44418.7" gradientUnits="userSpaceOnUse">
<stop offset="0.451923" stop-color="#DDDDDD"/>
<stop offset="1" stop-color="#979797"/>
</linearGradient>
<linearGradient id="paint13_linear_19_6308" x1="12848.5" y1="160.947" x2="12848.5" y2="41971.6" gradientUnits="userSpaceOnUse">
<stop offset="0.451923" stop-color="#DDDDDD"/>
<stop offset="1" stop-color="#979797"/>
</linearGradient>
<linearGradient id="paint14_linear_19_6308" x1="12106" y1="173.244" x2="12106" y2="39524.4" gradientUnits="userSpaceOnUse">
<stop offset="0.451923" stop-color="#DDDDDD"/>
<stop offset="1" stop-color="#979797"/>
</linearGradient>
<linearGradient id="paint15_linear_19_6308" x1="11363.5" y1="185.541" x2="11363.5" y2="37077.3" gradientUnits="userSpaceOnUse">
<stop offset="0.451923" stop-color="#DDDDDD"/>
<stop offset="1" stop-color="#979797"/>
</linearGradient>
<linearGradient id="paint16_linear_19_6308" x1="10621" y1="197.838" x2="10621" y2="34630.1" gradientUnits="userSpaceOnUse">
<stop offset="0.451923" stop-color="#DDDDDD"/>
<stop offset="1" stop-color="#979797"/>
</linearGradient>
<linearGradient id="paint17_linear_19_6308" x1="9878.51" y1="210.136" x2="9878.51" y2="32183" gradientUnits="userSpaceOnUse">
<stop offset="0.451923" stop-color="#DDDDDD"/>
<stop offset="1" stop-color="#979797"/>
</linearGradient>
<linearGradient id="paint18_linear_19_6308" x1="9136.01" y1="222.433" x2="9136.01" y2="29735.8" gradientUnits="userSpaceOnUse">
<stop offset="0.451923" stop-color="#DDDDDD"/>
<stop offset="1" stop-color="#979797"/>
</linearGradient>
<linearGradient id="paint19_linear_19_6308" x1="8393.51" y1="234.73" x2="8393.51" y2="27288.7" gradientUnits="userSpaceOnUse">
<stop offset="0.451923" stop-color="#DDDDDD"/>
<stop offset="1" stop-color="#979797"/>
</linearGradient>
<linearGradient id="paint20_linear_19_6308" x1="7651" y1="247.027" x2="7651" y2="24841.5" gradientUnits="userSpaceOnUse">
<stop offset="0.451923" stop-color="#DDDDDD"/>
<stop offset="1" stop-color="#979797"/>
</linearGradient>
<linearGradient id="paint21_linear_19_6308" x1="6908.5" y1="259.325" x2="6908.5" y2="22394.4" gradientUnits="userSpaceOnUse">
<stop offset="0.451923" stop-color="#DDDDDD"/>
<stop offset="1" stop-color="#979797"/>
</linearGradient>
<linearGradient id="paint22_linear_19_6308" x1="6166" y1="271.622" x2="6166" y2="19947.2" gradientUnits="userSpaceOnUse">
<stop offset="0.451923" stop-color="#DDDDDD"/>
<stop offset="1" stop-color="#979797"/>
</linearGradient>
<linearGradient id="paint23_linear_19_6308" x1="5423.5" y1="283.919" x2="5423.5" y2="17500.1" gradientUnits="userSpaceOnUse">
<stop offset="0.451923" stop-color="#DDDDDD"/>
<stop offset="1" stop-color="#979797"/>
</linearGradient>
<linearGradient id="paint24_linear_19_6308" x1="4681" y1="296.216" x2="4681" y2="15052.9" gradientUnits="userSpaceOnUse">
<stop offset="0.451923" stop-color="#DDDDDD"/>
<stop offset="1" stop-color="#979797"/>
</linearGradient>
<linearGradient id="paint25_linear_19_6308" x1="3938.5" y1="308.514" x2="3938.5" y2="12605.8" gradientUnits="userSpaceOnUse">
<stop offset="0.451923" stop-color="#DDDDDD"/>
<stop offset="1" stop-color="#979797"/>
</linearGradient>
<linearGradient id="paint26_linear_19_6308" x1="3196" y1="320.811" x2="3196" y2="10158.6" gradientUnits="userSpaceOnUse">
<stop offset="0.451923" stop-color="#DDDDDD"/>
<stop offset="1" stop-color="#979797"/>
</linearGradient>
<linearGradient id="paint27_linear_19_6308" x1="2453.5" y1="333.108" x2="2453.5" y2="7711.46" gradientUnits="userSpaceOnUse">
<stop offset="0.451923" stop-color="#DDDDDD"/>
<stop offset="1" stop-color="#979797"/>
</linearGradient>
<linearGradient id="paint28_linear_19_6308" x1="1711" y1="345.405" x2="1711" y2="5264.31" gradientUnits="userSpaceOnUse">
<stop offset="0.451923" stop-color="#DDDDDD"/>
<stop offset="1" stop-color="#979797"/>
</linearGradient>
<linearGradient id="paint29_linear_19_6308" x1="968.501" y1="357.703" x2="968.501" y2="2817.15" gradientUnits="userSpaceOnUse">
<stop offset="0.451923" stop-color="#DDDDDD"/>
<stop offset="1" stop-color="#979797"/>
</linearGradient>
</defs>
</svg>
